# xmcd
#
# Track frame offsets: 
#        150
#        11481
#        65464
#        81881
#        93863
#        110999
#        132283
#        159989
#        174516
#        196870
#        245506
#        266530
#
# Disc length: 3888 seconds
#
# Revision: 0
# Processed by: cddbd v1.5.1PL0 Copyright (c) Steve Scherf et al.
# Submitted via: ExactAudioCopy v0.95a3
#
DISCID=990f2e0c
DTITLE=Wilco - A Ghost Is Born
DYEAR=2004
DGENRE=Alternative
TTITLE0=At Least That's What you Said
TTITLE1=Hell Is Chrome
TTITLE2=Spiders (Kidsmoke)
TTITLE3=Muzzle Of Bees
TTITLE4=Hummingbird
TTITLE5=Handshake Drugs
TTITLE6=Wishful Thinking
TTITLE7=Company In My Back
TTITLE8=I'm A Wheel
TTITLE9=Theologians
TTITLE10=Less Than You Think
TTITLE11=Late Greats
EXTD=
EXTT0=
EXTT1=
EXTT2=
EXTT3=
EXTT4=
EXTT5=
EXTT6=
EXTT7=
EXTT8=
EXTT9=
EXTT10=
EXTT11=
PLAYORDER=
